# xmcd CD database file
#
# Track frame offsets:
#	187
#	27462
#	51047
#	69955
#	95030
#	120432
#	141217
#	158297
#	180807
#	203197
#	224725
#
# Disc length: 3265 seconds
#
# Revision: 0
# Processed by: cddbd v1.5.1PL2 Copyright (c) Steve Scherf et al.
# Submitted via: CDex 1.51
#
DISCID=930cbf0b
DTITLE=苫米地義久 - 音楽紀行　四万十川
DYEAR=1900
DGENRE=Easy Listening
TTITLE0=清流　四万十川
TTITLE1=源流の森
TTITLE2=木漏れ日の森を行く
TTITLE3=ひまわりの咲く道
TTITLE4=水の里を行く
TTITLE5=清流の贈り物
TTITLE6=川面揺らす風
TTITLE7=トンボの舞う楽園
TTITLE8=雲が流れ鳥が遊ぶ
TTITLE9=清流は海へ
TTITLE10=水の旅はるかに
EXTD=
EXTT0=
EXTT1=
EXTT2=
EXTT3=
EXTT4=
EXTT5=
EXTT6=
EXTT7=
EXTT8=
EXTT9=
EXTT10=
PLAYORDER=
